<?xml version="1.0" standalone="no"?>
<!DOCTYPE svg PUBLIC "-//W3C//DTD SVG 20010904//EN"
 "http://www.w3.org/TR/2001/REC-SVG-20010904/DTD/svg10.dtd">
<svg version="1.0" xmlns="http://www.w3.org/2000/svg"
 width="1235.000000pt" height="253.000000pt" viewBox="0 0 1235.000000 253.000000"
 preserveAspectRatio="xMidYMid meet">
<metadata>
Created by potrace 1.16, written by Peter Selinger 2001-2019
</metadata>
<g transform="translate(0.000000,253.000000) scale(0.100000,-0.100000)"
fill="#000000" stroke="none">
<path d="M6112 2354 c-16 -11 -22 -25 -22 -53 0 -47 24 -71 72 -71 44 0 68 25
68 73 0 41 -27 67 -70 67 -14 0 -36 -7 -48 -16z"/>
<path d="M6145 2149 c-4 -13 -27 -45 -50 -72 -33 -36 -45 -58 -50 -95 l-6 -47
-65 -1 c-76 -1 -107 -18 -143 -84 -34 -60 -36 -165 -5 -207 39 -53 134 -37
134 22 0 32 -24 49 -60 41 -28 -5 -30 -4 -20 14 22 41 118 38 146 -5 30 -46
-21 -158 -96 -210 -58 -40 -117 -54 -287 -65 -236 -17 -386 -61 -530 -157 -36
-24 -102 -90 -182 -183 -246 -284 -333 -360 -465 -409 -177 -65 -357 22 -395
191 -29 126 81 248 222 248 92 0 159 -147 82 -182 -13 -6 -36 -7 -51 -4 l-27
7 22 20 c39 37 18 99 -34 99 -15 0 -31 -10 -42 -26 -16 -25 -16 -28 0 -56 9
-16 17 -38 17 -48 0 -31 28 -44 95 -43 159 1 266 129 226 269 l-9 31 64 6
c108 8 140 50 94 124 l-20 33 59 57 c52 50 60 64 67 107 7 48 -15 148 -35 160
-5 3 -25 -22 -46 -56 -21 -33 -67 -91 -102 -129 -53 -56 -77 -73 -141 -100
-391 -162 -539 -328 -493 -551 31 -148 143 -222 336 -221 111 0 191 28 301
104 87 60 210 187 274 282 25 36 47 67 50 67 3 0 11 -13 18 -30 22 -49 73 -73
142 -68 38 3 66 11 79 22 19 18 20 17 31 -26 18 -68 54 -115 113 -145 45 -24
64 -27 142 -28 78 0 97 4 145 27 30 15 79 48 109 73 83 71 103 78 189 72 84
-6 92 0 73 63 -16 55 -61 90 -117 90 -32 0 -44 4 -44 15 0 25 -38 55 -70 55
-20 0 -39 -9 -53 -24 -22 -24 -23 -24 -45 -5 -56 45 -138 31 -183 -31 -13 -16
-31 -30 -40 -30 -51 0 -67 -78 -23 -107 24 -15 29 -15 53 -2 21 12 26 22 26
52 0 34 2 37 28 37 40 0 86 -27 97 -56 44 -115 -54 -203 -193 -174 -226 47
-236 389 -14 493 102 48 193 57 323 32 197 -38 316 -146 343 -314 17 -106 -13
-225 -71 -277 -70 -65 -165 -75 -220 -24 -31 28 -32 29 -10 30 31 0 49 41 34
75 -13 27 -58 35 -80 13 -22 -22 -15 -139 11 -189 50 -93 155 -139 245 -106
44 15 44 15 37 -6 -16 -53 -17 -184 -1 -238 18 -64 85 -181 100 -176 21 7 77
103 96 166 23 74 26 159 6 224 -8 26 -13 47 -11 47 1 0 19 -7 38 -15 53 -22
97 -18 158 13 75 38 112 99 117 193 5 78 -5 99 -47 99 -34 0 -51 -17 -51 -50
0 -31 17 -50 44 -50 19 -1 19 -3 -7 -25 -68 -60 -167 -48 -235 30 -48 55 -67
117 -66 215 3 214 157 352 419 376 167 15 316 -49 377 -163 107 -198 -42 -424
-245 -372 -66 16 -97 55 -97 119 0 65 28 99 89 107 44 6 44 6 37 -21 -5 -20
-1 -32 18 -51 29 -29 43 -31 74 -9 40 28 18 104 -31 104 -8 0 -25 14 -37 30
-43 61 -106 75 -171 38 l-39 -22 -21 23 c-16 17 -30 21 -57 19 -31 -2 -40 -9
-52 -35 -13 -28 -20 -33 -53 -33 -73 0 -127 -56 -127 -129 l0 -31 73 6 c87 8
119 -4 196 -70 111 -97 224 -127 344 -92 89 26 167 110 167 181 0 30 3 31 40
4 24 -18 38 -21 89 -17 50 4 66 9 91 33 17 16 33 40 36 52 6 20 12 15 57 -49
71 -102 208 -241 293 -298 101 -67 187 -95 294 -94 160 1 262 55 310 166 30
68 32 170 6 246 -41 121 -221 258 -461 352 -33 13 -75 34 -94 46 -46 31 -136
135 -173 201 -16 29 -32 53 -34 53 -3 0 -14 -19 -24 -42 -42 -93 -15 -194 69
-252 l40 -28 -20 -36 c-44 -83 -16 -122 90 -130 69 -5 69 -5 60 -29 -14 -39
-10 -105 10 -148 38 -82 115 -128 218 -128 66 -1 93 12 93 45 0 10 7 30 16 43
13 21 14 28 2 52 -15 31 -59 43 -84 22 -20 -16 -18 -76 2 -87 23 -13 8 -32
-25 -32 -78 0 -81 117 -5 175 43 32 163 9 217 -43 71 -67 86 -160 41 -250 -82
-165 -275 -200 -471 -85 -68 39 -177 146 -312 303 -141 164 -182 206 -244 249
-127 87 -290 134 -519 151 -86 5 -178 17 -205 25 -99 29 -174 110 -189 201 -5
37 -3 43 21 62 38 30 95 29 123 -1 23 -24 32 -51 10 -29 -7 7 -21 12 -33 12
-43 0 -61 -53 -29 -84 22 -23 87 -21 108 3 44 48 40 173 -7 243 -31 46 -70 62
-144 62 l-63 0 0 38 c0 46 -22 93 -51 109 -11 6 -29 29 -39 51 -17 38 -18 39
-25 17z"/>
<path d="M82 1098 c-39 -10 -68 -61 -58 -102 18 -71 105 -91 156 -36 l28 30
1734 0 1734 0 22 -30 c19 -26 29 -30 67 -30 72 0 111 57 84 121 -25 62 -109
71 -153 18 l-25 -29 -1733 0 -1734 0 -21 29 c-25 33 -54 41 -101 29z"/>
<path d="M8514 1096 c-36 -16 -59 -64 -50 -101 11 -43 41 -65 91 -65 38 0 48
4 67 30 l22 30 1734 0 1734 0 28 -30 c71 -76 189 -4 150 91 -15 36 -41 51 -89
51 -28 0 -41 -7 -62 -31 l-25 -31 -1732 0 -1732 0 -28 29 c-33 36 -67 44 -108
27z"/>
<path d="M4975 972 c-76 -47 -134 -133 -135 -200 0 -64 54 -49 109 31 33 49
64 135 59 166 -3 21 -3 21 -33 3z"/>
<path d="M7300 961 c0 -82 100 -238 147 -229 23 4 28 40 14 89 -13 42 -84 125
-130 152 l-31 18 0 -30z"/>
<path d="M5040 923 c-50 -57 -71 -114 -68 -181 3 -49 6 -57 24 -60 28 -4 60
36 79 101 16 56 20 163 6 171 -5 3 -24 -11 -41 -31z"/>
<path d="M7222 873 c3 -73 9 -97 33 -141 24 -45 33 -53 54 -50 25 3 26 5 25
68 -1 70 -21 121 -69 179 -42 49 -48 41 -43 -56z"/>
<path d="M5150 899 c-15 -63 -8 -151 16 -202 15 -31 23 -37 44 -35 21 3 26 9
31 47 3 24 2 66 -2 93 -8 52 -48 139 -66 145 -6 2 -16 -19 -23 -48z"/>
<path d="M7116 929 c-62 -95 -73 -259 -19 -267 48 -7 84 109 65 210 -14 75
-25 88 -46 57z"/>
</g>
</svg>
